<?xml version="1.0" ?><!DOCTYPE svg  PUBLIC '-//W3C//DTD SVG 1.1//EN'  'http://www.w3.org/Graphics/SVG/1.1/DTD/svg11.dtd'><svg height="100px" style="enable-background:new 0 0 100 100;" version="1.1" viewBox="0 0 100 100" width="100px" xml:space="preserve" xmlns="http://www.w3.org/2000/svg" xmlns:xlink="http://www.w3.org/1999/xlink"><g id="Grid"/><g id="_x31_"/><g id="_x32_"/><g id="_x33_"/><g id="_x34_"/><g id="_x35_"/><g id="_x36_"/><g id="_x37_"/><g id="_x38_"><path d="M84.8,87.9H69.2c-0.8,0-1.5-0.7-1.5-1.5c-0.1-7.8-6.6-14.1-14.4-14.1c-7.8,0-14.2,6.3-14.4,14.1c0,0.8-0.7,1.5-1.5,1.5   H24.1c-0.8,0-1.5-0.7-1.5-1.5V72.6c-8.9-0.8-15.9-8.2-15.9-17.3s7-16.6,15.9-17.3V25.8c0-0.8,0.7-1.5,1.5-1.5H36   c0.8-8.9,8.2-15.9,17.3-15.9s16.6,7,17.3,15.9h14.1c0.8,0,1.5,0.7,1.5,1.5v60.6C86.3,87.2,85.6,87.9,84.8,87.9z M70.6,84.9h12.6   V27.3h-14c-0.8,0-1.5-0.7-1.5-1.5c0-7.9-6.5-14.4-14.4-14.4S39,17.9,39,25.8c0,0.8-0.7,1.5-1.5,1.5H25.6v12.1   c0,0.8-0.7,1.5-1.5,1.5c-7.9,0-14.4,6.5-14.4,14.4s6.5,14.4,14.4,14.4c0.8,0,1.5,0.7,1.5,1.5v13.7h10.4c0.9-8.7,8.4-15.6,17.3-15.6   C62.3,69.3,69.7,76.2,70.6,84.9z M74.9,41c-2.7,0-4.9-2.2-4.9-4.9c0-2.7,2.2-4.9,4.9-4.9s4.9,2.2,4.9,4.9   C79.8,38.8,77.6,41,74.9,41z M74.9,34.2c-1.1,0-1.9,0.9-1.9,1.9c0,1.1,0.9,1.9,1.9,1.9s1.9-0.9,1.9-1.9C76.8,35,76,34.2,74.9,34.2z   "/></g><g id="_x39_"/><g id="_x31_0"/><g id="_x31_1"/><g id="_x31_2"/><g id="_x31_3"/><g id="_x31_4"/><g id="_x31_5"/><g id="_x31_6"/><g id="_x31_7"/><g id="_x31_8"/><g id="_x31_9"/><g id="_x32_0"/><g id="_x32_1"/><g id="_x32_2"/><g id="_x32_3"/><g id="_x32_4"/><g id="_x32_5"/></svg>