<?xml version="1.0" encoding="iso-8859-1"?>
<!-- Generator: Adobe Illustrator 16.0.0, SVG Export Plug-In . SVG Version: 6.00 Build 0)  -->
<!DOCTYPE svg PUBLIC "-//W3C//DTD SVG 1.1//EN" "http://www.w3.org/Graphics/SVG/1.1/DTD/svg11.dtd">
<svg version="1.1" id="Capa_1" xmlns="http://www.w3.org/2000/svg" xmlns:xlink="http://www.w3.org/1999/xlink" x="0px" y="0px"
	 width="66.506px" height="66.506px" viewBox="0 0 66.506 66.506" style="enable-background:new 0 0 66.506 66.506;"
	 xml:space="preserve">
<g>
	<g>
		<path d="M21,0c2.271,0,4.405,0.884,6.011,2.489l24.506,24.506c1.646,1.645,2.546,3.921,2.479,6.255
			c0.067,2.337-0.833,4.613-2.479,6.261L27.01,64.018c-1.605,1.604-3.739,2.488-6.01,2.488s-4.405-0.884-6.01-2.488
			c-3.314-3.314-3.314-8.707,0-12.021l18.743-18.743L14.99,14.511c-3.314-3.314-3.314-8.707,0-12.021C16.597,0.884,18.73,0,21,0z
			 M21,62.506c1.202,0,2.332-0.468,3.182-1.316l24.033-24.506c0.891-0.894,0.833-2.084,0.833-3.355c0-0.051,0-0.102,0-0.151
			c0-1.271,0.058-2.461-0.833-3.353L23.945,5.317C23.095,4.467,22.083,4,20.882,4c-1.203,0-2.273,0.468-3.123,1.317
			c-1.755,1.755-1.725,4.61,0.03,6.365l20.172,20.156c0.781,0.781,0.788,2.047,0.007,2.828L17.815,54.822
			c-1.754,1.756-1.753,4.611,0.001,6.365C18.666,62.038,19.798,62.506,21,62.506z"/>
	</g>
</g>
<g>
</g>
<g>
</g>
<g>
</g>
<g>
</g>
<g>
</g>
<g>
</g>
<g>
</g>
<g>
</g>
<g>
</g>
<g>
</g>
<g>
</g>
<g>
</g>
<g>
</g>
<g>
</g>
<g>
</g>
</svg>
